<?xml version="1.0" encoding="UTF-8" standalone="no"?>
<svg
   viewBox="0 0 2048 2048"
   version="1.1"
   id="svg139"
   sodipodi:docname="bB.svg"
   inkscape:version="1.2.1 (9c6d41e410, 2022-07-14)"
   xmlns:inkscape="http://www.inkscape.org/namespaces/inkscape"
   xmlns:sodipodi="http://sodipodi.sourceforge.net/DTD/sodipodi-0.dtd"
   xmlns="http://www.w3.org/2000/svg"
   xmlns:svg="http://www.w3.org/2000/svg">
  <defs
     id="defs143" />
  <sodipodi:namedview
     id="namedview141"
     pagecolor="#ffffff"
     bordercolor="#000000"
     borderopacity="0.25"
     inkscape:showpageshadow="2"
     inkscape:pageopacity="0.0"
     inkscape:pagecheckerboard="0"
     inkscape:deskcolor="#d1d1d1"
     showgrid="false"
     inkscape:zoom="0.099365234"
     inkscape:cx="-241.53317"
     inkscape:cy="-266.69287"
     inkscape:window-width="1920"
     inkscape:window-height="1001"
     inkscape:window-x="-9"
     inkscape:window-y="-9"
     inkscape:window-maximized="1"
     inkscape:current-layer="svg139" />
  <path
     d="M 732.3355,1289.835 627.8342,993.05919 1014,576.30865 l 420.6826,374.83597 -132.1147,379.61628 49.674,151.806 -658.07476,-8.7101 z"
     fill="#f9f9f9"
     id="path135" />
  <path
     d="M 831,1519 H 624 c 44.66667,-77.3333 68.66667,-153.6667 72,-229 C 620,1210.6667 566,1136.1667 534,1066.5 502,996.83333 500,922.33333 528,843 550,779 589.33333,715.83333 646,653.5 702.66667,591.16667 806.66667,509 958,407 c -11.33333,-7.33333 -26.66667,-19.33333 -46,-36 -19.33333,-16.66667 -29,-43 -29,-79 0,-38.66667 13.66667,-70.66667 41,-96 27.33333,-25.33333 60.66667,-38 100,-38 38.6667,0 71.8333,12.66667 99.5,38 27.6667,25.33333 41.5,57.33333 41.5,96 0,36 -9.8333,62.33333 -29.5,79 -19.6667,16.66667 -34.8333,28.66667 -45.5,36 150.6667,102 254.3333,184.16667 311,246.5 56.6667,62.33333 96.3333,125.5 119,189.5 28,79.33333 26,153.83333 -6,223.5 -32,69.6667 -86,144.1667 -162,223.5 2.6667,75.3333 26.6667,151.6667 72,229 h -207 c -1.3333,-2.6667 2,2.6667 10,16 22,35.3333 45.3333,55.3333 70,60 24.6667,4.6667 54.3333,7 89,7 h 250 c 50.6667,0 97.8333,20.6667 141.5,62 43.6667,41.3333 65.5,101 65.5,179 h -495 c -82,0 -156.5,-28.1667 -223.5,-84.5 -67,-56.3333 -100.5,-122.5 -100.5,-198.5 0,76 -33.66667,142.1667 -101,198.5 -67.33333,56.3333 -141.66667,84.5 -223,84.5 H 205 c 0,-78 21.66667,-137.6667 65,-179 43.33333,-41.3333 90.66667,-62 142,-62 h 250 c 34,0 63.33333,-2.3333 88,-7 24.66667,-4.6667 48.33333,-24.6667 71,-60 8,-13.3333 11.33333,-18.6667 10,-16 z"
     fill="#101010"
     id="path137"
     sodipodi:nodetypes="cccscscssssssscscsccccsssscsscsscsssscc" />
  <g
     inkscape:groupmode="layer"
     id="layer1"
     inkscape:label="Layer 1" />
  <path
     d="m 768,1365 c -3.33333,26 -12,53.3333 -26,82 h 564 c -12,-24 -20.6667,-51.3333 -26,-82 z"
     style="fill:#ffcc00;fill-opacity:1"
     id="path2533" />
  <path
     d="m 1263,1292 46,-73 c -94.6667,-32.6667 -189.6667,-48.3333 -285,-47 -96,-1.3333 -191,14.3333 -285,47 l 46,73 c 78.66667,-26.6667 158.33333,-39.3333 239,-38 80,-1.3333 159.6667,11.3333 239,38 z"
     style="fill:#ffcc00;fill-opacity:1"
     id="path2510" />
  <path
     d="m 977,818 h -95 v 89 h 95 v 165 h 94 V 907 h 95 v -89 h -95 V 714 h -94 z"
     style="fill:#ffcc00;fill-opacity:1"
     id="path470"
     sodipodi:nodetypes="ccccccccccccc" />
</svg>
