<?xml version="1.0" encoding="UTF-8" standalone="no"?>
<svg
   viewBox="0 0 2048 2048"
   version="1.1"
   id="svg4782"
   sodipodi:docname="bK.svg"
   inkscape:version="1.2.1 (9c6d41e410, 2022-07-14)"
   xmlns:inkscape="http://www.inkscape.org/namespaces/inkscape"
   xmlns:sodipodi="http://sodipodi.sourceforge.net/DTD/sodipodi-0.dtd"
   xmlns="http://www.w3.org/2000/svg"
   xmlns:svg="http://www.w3.org/2000/svg">
  <defs
     id="defs4786" />
  <sodipodi:namedview
     id="namedview4784"
     pagecolor="#ffffff"
     bordercolor="#000000"
     borderopacity="0.25"
     inkscape:showpageshadow="2"
     inkscape:pageopacity="0.0"
     inkscape:pagecheckerboard="0"
     inkscape:deskcolor="#d1d1d1"
     showgrid="false"
     inkscape:zoom="0.39746094"
     inkscape:cx="691.89189"
     inkscape:cy="1010.1622"
     inkscape:window-width="1920"
     inkscape:window-height="1001"
     inkscape:window-x="-9"
     inkscape:window-y="-9"
     inkscape:window-maximized="1"
     inkscape:current-layer="svg4782" />
  <path
     d="m 553.33333,1485 -55,320 1047.33337,5 -47.3334,-335 c 0,0 323.3334,-313.3333 330,-466.6667 C 1835,855 1793.2385,677.36891 1586.6667,601.66667 1404.4831,534.90195 1215,723.33333 1215,723.33333 l -181.6667,-161.66666 -189.99997,160 c 0,0 -185.06774,-135.89105 -256.66666,-130 C 323.33333,613.33334 235,811.66667 225,925 c 10.16447,331.252 328.33333,560 328.33333,560 z"
     fill="#f9f9f9"
     id="path4778" />
  <path
     d="m 1024,1769 h 489 l -12,-73 H 547 l -12,73 z m 0,-921 c -16.6667,-40 -37.33333,-77 -62,-111 20.66667,-32 41.3333,-53.66667 62,-65 20,11.33333 40.6667,33 62,65 -25.3333,34 -46,71 -62,111 z m -97,454 c -102.66667,7.3333 -203.66667,26.6667 -303,58 C 542,1288 475.33333,1216.8333 424,1146.5 372.66667,1076.1667 347,1009 347,945 c 0,-59.33333 24.5,-112.33333 73.5,-159 49,-46.66667 98.5,-70 148.5,-70 44.66667,0 89.5,20.83333 134.5,62.5 45,41.66667 79.16667,85.16667 102.5,130.5 20,36 45,94.3333 75,175 30,80.6667 45.33333,153.3333 46,218 z m 97,-690 c -31.33333,0 -76.66667,40.33333 -136,121 -20.66667,-24 -37.33333,-42.33333 -50,-55 62,-93.33333 124,-140 186,-140 61.3333,0 123.3333,46.66667 186,140 -13.3333,12.66667 -30,31 -50,55 -60,-80.66667 -105.3333,-121 -136,-121 z m 0,775 c -0.6667,-84 -14.6667,-173.1667 -42,-267.5 -27.33333,-94.3333 -55.33333,-169.83333 -84,-226.5 -5.33333,-9.33333 -10,-18.33333 -14,-27 -4,-8.66667 -8,-16.33333 -12,-23 -18.66667,-28.66667 -34.66667,-51.66667 -48,-69 -34,-42 -74,-77 -120,-105 -46,-28 -90.66667,-42 -134,-42 -68.66667,0 -138,31 -208,93 -70,62 -105,138.33333 -105,229 0,80 33,164.8333 99,254.5 66,89.6667 149,176.1667 249,259.5 134,-49.3333 273.66667,-74.6667 419,-76 z m 0,456 H 448 l 61,-365 C 292.33333,1291.3333 183.66667,1113 183,943 182.33333,837 224,745.5 308,668.5 392,591.5 481,553 575,553 c 52,0 104.83333,15.66667 158.5,47 53.66667,31.33333 101.16667,71 142.5,119 40.66667,49.33333 73.5,104.16667 98.5,164.5 25,60.33333 41.5,110.5 49.5,150.5 8,-40 24.3333,-90.16667 49,-150.5 24.6667,-60.33333 57.6667,-115.16667 99,-164.5 40.6667,-48 88,-87.66667 142,-119 54,-31.33333 107,-47 159,-47 93.3333,0 182,38.5 266,115.5 84,77 126,168.5 126,274.5 -1.3333,170 -110,348.3333 -326,535 l 61,365 z m 97,-541 c 0,-64.6667 15,-137.3333 45,-218 30,-80.6667 55.3333,-139 76,-175 22.6667,-45.33333 56.5,-88.83333 101.5,-130.5 45,-41.66667 90.1667,-62.5 135.5,-62.5 49.3333,0 98.5,23.33333 147.5,70 49,46.66667 73.8333,99.66667 74.5,159 0,64 -25.6667,131.1667 -77,201.5 -51.3333,70.3333 -118,141.5 -200,213.5 -100,-31.3333 -201,-50.6667 -303,-58 z m -97,85 c 144.6667,1.3333 284.3333,26.6667 419,76 100,-83.3333 183,-169.8333 249,-259.5 66,-89.6667 99,-174.5 99,-254.5 0,-90.66667 -35.1667,-167 -105.5,-229 -70.3333,-62 -139.5,-93 -207.5,-93 -44,0 -89,14 -135,42 -46,28 -85.6667,63 -119,105 -14,17.33333 -30,40.33333 -48,69 -4,6.66667 -8.1667,14.33333 -12.5,23 l -13.5,27 c -29.3333,56.66667 -57.6667,132.1667 -85,226.5 -27.3333,94.3333 -41,183.5 -41,267.5 z"
     fill="#101010"
     id="path4780"
     sodipodi:nodetypes="cccccccccccccssssscscsccsccscscsccsssssccccccssscscscssscccccscssscsccccsssssccscsc" />
  <g
     inkscape:groupmode="layer"
     id="layer2"
     inkscape:label="Layer 1" />
  <path
     d="m 977,298 v -95 h 94 v 95 h 107 v 95 h -107 v 153 c -32,-10.66667 -63.3333,-10.66667 -94,0 V 393 H 870 v -95 z"
     style="fill:#ffcc00;stroke:#101010;stroke-width:35;stroke-dasharray:none;stroke-opacity:1;fill-opacity:1"
     id="path9039" />
  <path
     d="m 577,1519 -26,156 145,-84 z m 894,0 -119,72 145,84 z m -586,27 139,86 139,-84 -139,-86 z"
     style="fill:#ffcc00;fill-opacity:1"
     id="path4913" />
</svg>
