<?xml version="1.0" encoding="UTF-8" standalone="no"?>
<svg
   viewBox="0 0 2048 2048"
   version="1.1"
   id="svg6"
   sodipodi:docname="bQ.svg"
   inkscape:version="1.2.1 (9c6d41e410, 2022-07-14)"
   inkscape:export-filename="bQs.png"
   inkscape:export-xdpi="4.40625"
   inkscape:export-ydpi="4.40625"
   xmlns:inkscape="http://www.inkscape.org/namespaces/inkscape"
   xmlns:sodipodi="http://sodipodi.sourceforge.net/DTD/sodipodi-0.dtd"
   xmlns="http://www.w3.org/2000/svg"
   xmlns:svg="http://www.w3.org/2000/svg">
  <defs
     id="defs10" />
  <sodipodi:namedview
     id="namedview8"
     pagecolor="#ffffff"
     bordercolor="#000000"
     borderopacity="0.25"
     inkscape:showpageshadow="2"
     inkscape:pageopacity="0.0"
     inkscape:pagecheckerboard="0"
     inkscape:deskcolor="#d1d1d1"
     showgrid="false"
     showguides="false"
     inkscape:zoom="0.39746094"
     inkscape:cx="762.33907"
     inkscape:cy="1095.7052"
     inkscape:window-width="1920"
     inkscape:window-height="1001"
     inkscape:window-x="-9"
     inkscape:window-y="-9"
     inkscape:window-maximized="1"
     inkscape:current-layer="svg6" />
  <path
     d="m 520.05393,1801.7798 41.42023,-448.7191 474.03144,-128.8629 457.9236,133.4651 34.5169,446.418 z"
     fill="#f9f9f9"
     id="path2" />
  <path
     d="M 1024,1843 H 441 c 76,-154 95.16667,-306.1667 57.5,-456.5 C 460.83333,1236.1667 393.33333,1086.3333 296,937 c -8,1.33333 -14.33333,2 -19,2 -36,0 -66.83333,-12.83333 -92.5,-38.5 C 158.83333,874.83333 146,844 146,808 146,772 158.83333,741.16667 184.5,715.5 210.16667,689.83333 241,677 277,677 c 36,0 66.83333,12.83333 92.5,38.5 25.66667,25.66667 38.5,56.5 38.5,92.5 0,13.33333 -2,26 -6,38 -2.66667,9.33333 -7.66667,20.33333 -15,33 l 196,139 100,-486 c -42.66667,-20.66667 -66.66667,-55 -72,-103 -3.33333,-29.33333 6.33333,-59.66667 29,-91 22.66667,-31.33333 52,-49 88,-53 36,-3.33333 68,6.33333 96,29 28,22.66667 44,52 48,88 4.66667,45.33333 -10.66667,83.33333 -46,114 l 198,412 198,-412 c -36,-30.66667 -51.3333,-68.66667 -46,-114 4,-36 20,-65.33333 48,-88 28,-22.66667 60,-32.33333 96,-29 36,4 65.1667,21.66667 87.5,53 22.3333,31.33333 32.1667,61.66667 29.5,91 -6,48 -30,82.33333 -72,103 l 100,486 196,-139 c -8,-12.66667 -13,-23.66667 -15,-33 -4,-12 -6,-24.66667 -6,-38 0,-36 12.8333,-66.83333 38.5,-92.5 25.6667,-25.66667 56.5,-38.5 92.5,-38.5 36,0 66.8333,12.83333 92.5,38.5 25.6667,25.66667 38.5,56.5 38.5,92.5 0,36 -12.8333,66.83333 -38.5,92.5 -25.6667,25.66667 -56.5,38.5 -92.5,38.5 -4.6667,0 -11,-0.66667 -19,-2 -98,149.3333 -165.6667,299.1667 -203,449.5 -37.3333,150.3333 -18,302.5 58,456.5 z m 0,-450 c 72.6667,0 146.6667,9.5 222,28.5 75.3333,19 146.3333,41.5 213,67.5 1.3333,-27.3333 5,-57 11,-89 -72,-28 -145.8333,-50.6667 -221.5,-68 -75.6667,-17.3333 -150.5,-26 -224.5,-26 -74,0 -149,8.6667 -225,26 -76,17.3333 -149.66667,40 -221,68 5.33333,32 9,61.6667 11,89 66,-26 136.66667,-48.5 212,-67.5 75.33333,-19 149.66667,-28.5 223,-28.5 z m 0,376 h 478 c -10,-22.6667 -18,-47 -24,-73 H 570 c -6.66667,26 -14.66667,50.3333 -24,73 z"
     fill="#101010"
     id="path4"
     sodipodi:nodetypes="ccscssssssscccccscscccccscscccccssssssscsccssccsssccsscccccc" />
  <g
     inkscape:groupmode="layer"
     id="layer1"
     inkscape:label="Layer 1"
     style="display:none;fill:#ffcc00">
    <ellipse
       style="fill:#ffcc00;stroke-width:1.01877;-inkscape-stroke:none;stop-color:#000000"
       id="path678-5"
       cx="1306.7885"
       cy="414.50616"
       rx="133.42947"
       ry="132.09518" />
    <ellipse
       style="fill:#ffcc00;stroke-width:1.01877;-inkscape-stroke:none;stop-color:#000000"
       id="path678"
       cx="1772.3884"
       cy="808.13794"
       rx="133.42947"
       ry="132.09518" />
    <ellipse
       style="fill:#ffcc00;stroke-width:1.01877;-inkscape-stroke:none;stop-color:#000000"
       id="path678-5-2"
       cx="741.1615"
       cy="414.5062"
       rx="133.42947"
       ry="132.09518" />
    <ellipse
       style="fill:#ffcc00;stroke-width:1.01877;-inkscape-stroke:none;stop-color:#000000"
       id="path678-5-2-6"
       cx="275.61148"
       cy="808.13818"
       rx="133.42947"
       ry="132.09518" />
  </g>
  <path
     d="m 590,1519 c 2.66667,48 -2.33333,100.6667 -15,158 l 134,-86 z m 868,0 -119,72 134,86 c -13.3333,-57.3333 -18.3333,-110 -15,-158 z m -573,47 139,87 139,-84 -139,-86 z"
     style="fill:#ffcc00;stroke:none;stroke-opacity:1"
     id="path624"
     sodipodi:nodetypes="cccccccc" />
  <path
     d="m 276,746 c -41.33333,0 -62,20.66667 -62,62 0,41.33333 20.66667,62 62,62 42,0 63,-20.66667 63,-62 0,-41.33333 -21,-62 -63,-62 z M 742,352 c -41.33333,0 -62,20.66667 -62,62 0,41.33333 20.66667,62 62,62 41.33333,0 62,-20.66667 62,-62 0,-41.33333 -20.66667,-62 -62,-62 z m 1030,394 c -42,0 -63,20.66667 -63,62 0,41.33333 21,62 63,62 41.3333,0 62,-20.66667 62,-62 0,-41.33333 -20.6667,-62 -62,-62 z M 1306,352 c -41.3333,0 -62,20.66667 -62,62 0,41.33333 20.6667,62 62,62 41.3333,0 62,-20.66667 62,-62 0,-41.33333 -20.6667,-62 -62,-62 z"
     style="fill:#ffcc00"
     id="path941" />
</svg>
