<?xml version="1.0" encoding="UTF-8" standalone="no"?>
<svg
   viewBox="0 0 2048 2048"
   version="1.1"
   id="svg6"
   sodipodi:docname="wK - Copy.svg"
   inkscape:version="1.2.1 (9c6d41e410, 2022-07-14)"
   inkscape:export-filename="2-wKs.png"
   inkscape:export-xdpi="4.40625"
   inkscape:export-ydpi="4.40625"
   xmlns:inkscape="http://www.inkscape.org/namespaces/inkscape"
   xmlns:sodipodi="http://sodipodi.sourceforge.net/DTD/sodipodi-0.dtd"
   xmlns="http://www.w3.org/2000/svg"
   xmlns:svg="http://www.w3.org/2000/svg">
  <defs
     id="defs10" />
  <sodipodi:namedview
     id="namedview8"
     pagecolor="#ffffff"
     bordercolor="#000000"
     borderopacity="0.25"
     inkscape:showpageshadow="2"
     inkscape:pageopacity="0.0"
     inkscape:pagecheckerboard="0"
     inkscape:deskcolor="#d1d1d1"
     showgrid="false"
     inkscape:zoom="0.28104732"
     inkscape:cx="597.7641"
     inkscape:cy="752.5423"
     inkscape:window-width="1920"
     inkscape:window-height="1001"
     inkscape:window-x="-9"
     inkscape:window-y="-9"
     inkscape:window-maximized="1"
     inkscape:current-layer="svg6" />
  <path
     d="m 501.64494,1810.9843 48.3236,-354.3731 -260.02697,-269.2314 c 0,0 -166.32924,-288.13389 29.91461,-480.93486 262.32809,-257.72584 506.24719,20.71012 506.24719,20.71012 l 195.59553,-165.6809 184.0899,165.6809 c 0,0 216.3056,-232.41349 430.3101,-75.93708 214.0045,156.4764 255.4247,317.55505 117.3573,531.55952 -138.0674,214.0045 -250.8225,280.7371 -250.8225,280.7371 l 55.227,347.4697 z"
     fill="#f9f9f9"
     id="path2" />
  <path
     d="m 1024,612 c -31.33333,0 -76.66667,40.33333 -136,121 -20.66667,-24 -37.33333,-42.33333 -50,-55 62,-93.33333 124,-140 186,-140 61.3333,0 123.3333,46.66667 186,140 -13.3333,12.66667 -30,31 -50,55 -60,-80.66667 -105.3333,-121 -136,-121 z m -37,701 C 986.33333,1215 974.16667,1123.5 950.5,1038.5 926.83333,953.5 900,889 870,845 840,786.33333 796.16667,735.33333 738.5,692 680.83333,648.66667 624.66667,627 570,627 c -68.66667,0 -138,31 -208,93 -70,62 -105,138.33333 -105,229 0,72.6667 28.83333,151.3333 86.5,236 57.66667,84.6667 125.16667,159 202.5,223 141.33333,-58.6667 288.33333,-90.3333 441,-95 z m 37,530 H 448 l 61,-365 C 292.33333,1291.3333 183.66667,1113 183,943 182.33333,837 224,745.5 308,668.5 392,591.5 481,553 575,553 c 52,0 104.83333,15.66667 158.5,47 53.66667,31.33333 101.16667,71 142.5,119 40.66667,49.33333 73.5,104.16667 98.5,164.5 25,60.33333 41.5,110.5 49.5,150.5 8,-40 24.3333,-90.16667 49,-150.5 24.6667,-60.33333 57.6667,-115.16667 99,-164.5 40.6667,-48 88,-87.66667 142,-119 54,-31.33333 107,-47 159,-47 93.3333,0 182,38.5 266,115.5 84,77 126,168.5 126,274.5 -1.3333,170 -110,348.3333 -326,535 l 61,365 z m 0,-74 h 489 l -50,-298 c -144,-56 -290.3333,-84 -439,-84 -148.66667,0 -295,28 -439,84 l -50,298 z m 37,-456 c 152.6667,4.6667 299.6667,36.3333 441,95 76.6667,-64 144,-138.3333 202,-223 58,-84.6667 87,-163.3333 87,-236 0,-90.66667 -35.1667,-167 -105.5,-229 -70.3333,-62 -139.5,-93 -207.5,-93 -55.3333,0 -111.8333,21.66667 -169.5,65 -57.6667,43.33333 -101.1667,94.33333 -130.5,153 -30.6667,44 -57.8333,108.5 -81.5,193.5 -23.6667,85 -35.5,176.5 -35.5,274.5 z"
     fill="#101010"
     id="path4"
     sodipodi:nodetypes="sccsccscscsssssccccccssscscscssscccccccscccccssssscsc" />
  <g
     inkscape:groupmode="layer"
     id="layer1"
     inkscape:label="Layer 1" />
  <path
     d="m 577,1519 -26,156 145,-84 z m 894,0 26,156 -145,-84 z m -586,27 141,-84 137,86 -141,84 z M 977,298 v -95 h 94 v 95 h 107 v 95 h -107 v 153 c -32,-10.66667 -63.3333,-10.66667 -94,0 V 393 H 870 v -95 z"
     style="fill:#ffcc00;fill-opacity:1;stroke:#101010;stroke-width:35;stroke-dasharray:none;stroke-opacity:1"
     id="path397"
     inkscape:label="path397"
     sodipodi:nodetypes="cccccccccccccccccccccccccc" />
</svg>
