<?xml version="1.0" encoding="UTF-8" standalone="no"?>
<svg
   viewBox="0 0 2048 2048"
   version="1.1"
   id="svg776"
   sodipodi:docname="wQ.svg"
   inkscape:version="1.2.1 (9c6d41e410, 2022-07-14)"
   inkscape:export-filename="wQ.png"
   inkscape:export-xdpi="8.8125"
   inkscape:export-ydpi="8.8125"
   xmlns:inkscape="http://www.inkscape.org/namespaces/inkscape"
   xmlns:sodipodi="http://sodipodi.sourceforge.net/DTD/sodipodi-0.dtd"
   xmlns="http://www.w3.org/2000/svg"
   xmlns:svg="http://www.w3.org/2000/svg">
  <defs
     id="defs780" />
  <sodipodi:namedview
     id="namedview778"
     pagecolor="#ffffff"
     bordercolor="#000000"
     borderopacity="0.25"
     inkscape:showpageshadow="2"
     inkscape:pageopacity="0.0"
     inkscape:pagecheckerboard="0"
     inkscape:deskcolor="#d1d1d1"
     showgrid="false"
     inkscape:zoom="0.22028034"
     inkscape:cx="-2.2698349"
     inkscape:cy="1641.0906"
     inkscape:window-width="1920"
     inkscape:window-height="1001"
     inkscape:window-x="-9"
     inkscape:window-y="-9"
     inkscape:window-maximized="1"
     inkscape:current-layer="svg776" />
  <path
     d="M 508.54831,1815.5865 556.87191,1458.9124 340.56629,904.34157 204.8,883.63146 l -16.10787,-126.5618 112.75506,-43.72135 78.2382,73.63596 -18.40899,98.94831 246.22023,197.89662 112.75506,-568.37751 -85.14158,-87.4427 78.2382,-108.15281 112.75506,43.72135 -23.01124,161.07865 223.20897,474.03146 243.9191,-490.13933 -66.7326,-105.85168 92.045,-92.04494 105.8517,73.63595 -64.4315,149.57303 103.5506,529.25843 260.0269,-161.07865 -16.1078,-142.66966 131.164,-46.02248 57.5281,131.16405 -207.1011,103.55056 -174.8854,529.25838 48.3236,308.3506 z"
     fill="#f9f9f9"
     id="path772" />
  <path
     d="m 1024,1769 h 478 c -35.3333,-86.6667 -49.6667,-180 -43,-280 -66.6667,-26 -137.6667,-48.5 -213,-67.5 -75.3333,-19 -149.3333,-28.5 -222,-28.5 -73.33333,0 -147.66667,9.5 -223,28.5 -75.33333,19 -146,41.5 -212,67.5 6,100 -8.33333,193.3333 -43,280 z m 0,-450 c 74,0 148.5,8.8333 223.5,26.5 75,17.6667 148.5,40.1667 220.5,67.5 11.3333,-70 31.5,-140.8333 60.5,-212.5 29,-71.6667 64.1667,-142.5 105.5,-212.5 L 1414,1143 1291,542 1024,1097 757,542 634,1143 414,988 c 40.66667,70 75.5,140.8333 104.5,212.5 29,71.6667 49.5,142.5 61.5,212.5 72,-27.3333 145.5,-49.8333 220.5,-67.5 75,-17.6667 149.5,-26.5 223.5,-26.5 z m 0,524 H 441 c 76,-154 95.16667,-306.1667 57.5,-456.5 C 460.83333,1236.1667 393.33333,1086.3333 296,937 c -8,1.33333 -14.33333,2 -19,2 -36,0 -66.83333,-12.83333 -92.5,-38.5 C 158.83333,874.83333 146,844 146,808 146,772 158.83333,741.16667 184.5,715.5 210.16667,689.83333 241,677 277,677 c 36,0 66.83333,12.83333 92.5,38.5 25.66667,25.66667 38.5,56.5 38.5,92.5 0,13.33333 -2,26 -6,38 -2.66667,9.33333 -7.66667,20.33333 -15,33 l 196,139 100,-486 c -42.66667,-20.66667 -66.66667,-55 -72,-103 -3.33333,-29.33333 6.33333,-59.66667 29,-91 22.66667,-31.33333 52,-49 88,-53 36,-3.33333 68,6.33333 96,29 28,22.66667 44,52 48,88 4.66667,45.33333 -10.66667,83.33333 -46,114 l 198,412 198,-412 c -36,-30.66667 -51.3333,-68.66667 -46,-114 4,-36 20,-65.33333 48,-88 28,-22.66667 60,-32.33333 96,-29 36,4 65.1667,21.66667 87.5,53 22.3333,31.33333 32.1667,61.66667 29.5,91 -6,48 -30,82.33333 -72,103 l 100,486 196,-139 c -8,-12.66667 -13,-23.66667 -15,-33 -4,-12 -6,-24.66667 -6,-38 0,-36 12.8333,-66.83333 38.5,-92.5 25.6667,-25.66667 56.5,-38.5 92.5,-38.5 36,0 66.8333,12.83333 92.5,38.5 25.6667,25.66667 38.5,56.5 38.5,92.5 0,36 -12.8333,66.83333 -38.5,92.5 -25.6667,25.66667 -56.5,38.5 -92.5,38.5 -4.6667,0 -11,-0.66667 -19,-2 -98,149.3333 -165.6667,299.1667 -203,449.5 -37.3333,150.3333 -18,302.5 58,456.5 z"
     fill="#101010"
     id="path774"
     sodipodi:nodetypes="cccssscccsscscccccccscssccscssssssscccccscscccccscscccccssssssscscc" />
  <path
     d="m 590,1519 119,72 -134,86 c 12.66667,-57.3333 17.66667,-110 15,-158 z m 868,0 -119,72 134,86 c -13.3333,-57.3333 -18.3333,-110 -15,-158 z m -573,47 139,-83 139,86 -139,84 z"
     style="fill:#ffcc00;stroke:#101010;stroke-opacity:1;stroke-width:35;stroke-dasharray:none"
     id="path1056"
     inkscape:highlight-color="#aaaaaa" />
  <path
     d="m 276,746 c -41.33333,0 -62,20.66667 -62,62 0,41.33333 20.66667,62 62,62 42,0 63,-20.66667 63,-62 0,-41.33333 -21,-62 -63,-62 z M 742,352 c -41.33333,0 -62,20.66667 -62,62 0,41.33333 20.66667,62 62,62 41.33333,0 62,-20.66667 62,-62 0,-41.33333 -20.66667,-62 -62,-62 z m 1030,394 c -42,0 -63,20.66667 -63,62 0,41.33333 21,62 63,62 41.3333,0 62,-20.66667 62,-62 0,-41.33333 -20.6667,-62 -62,-62 z M 1306,352 c -41.3333,0 -62,20.66667 -62,62 0,41.33333 20.6667,62 62,62 41.3333,0 62,-20.66667 62,-62 0,-41.33333 -20.6667,-62 -62,-62 z"
     style="fill:#ffcc00"
     id="path1079" />
</svg>
