<?xml version="1.0" encoding="UTF-8" standalone="no"?>
<svg
   viewBox="0 0 2048 2048"
   version="1.1"
   id="svg1336"
   sodipodi:docname="wR.svg"
   inkscape:version="1.2.1 (9c6d41e410, 2022-07-14)"
   xmlns:inkscape="http://www.inkscape.org/namespaces/inkscape"
   xmlns:sodipodi="http://sodipodi.sourceforge.net/DTD/sodipodi-0.dtd"
   xmlns="http://www.w3.org/2000/svg"
   xmlns:svg="http://www.w3.org/2000/svg">
  <defs
     id="defs1340" />
  <sodipodi:namedview
     id="namedview1338"
     pagecolor="#ffffff"
     bordercolor="#000000"
     borderopacity="0.25"
     inkscape:showpageshadow="2"
     inkscape:pageopacity="0.0"
     inkscape:pagecheckerboard="0"
     inkscape:deskcolor="#d1d1d1"
     showgrid="false"
     inkscape:zoom="0.39746094"
     inkscape:cx="420.16708"
     inkscape:cy="1090.6732"
     inkscape:window-width="1920"
     inkscape:window-height="1001"
     inkscape:window-x="-9"
     inkscape:window-y="-9"
     inkscape:window-maximized="1"
     inkscape:current-layer="svg1336" />
  <path
     d="m 434.91236,1804.0809 16.10786,-211.7034 151.87416,-115.0562 50.62472,-688.03591 -147.27191,-115.05618 -6.90337,-276.13483 209.40225,-2.30112 4.60224,138.06741 197.89663,2.30113 6.90337,-140.36854 211.70339,-2.30113 13.8067,144.97079 193.2944,-4.60225 4.6023,-138.06741 h 204.8 l -6.9034,285.33932 -144.9708,105.85169 41.4202,692.63823 172.5843,124.2606 18.409,207.1012 z"
     fill="#f9f9f9"
     id="path1332" />
  <path
     d="M1024 1501H643l5-74h752l5 74zm0-661H692l5-74h654l5 74zm0 1003H383l29-264 159-118 50-659-149-107-17-341h289v147h137V354h286v147h137V354h289l-17 341-149 107 50 659 159 118 29 264zm0-74h557l-15-149-161-119-54-735 152-109 13-230h-138v148h-285V427H955v148H670V427H532l13 230 152 109-54 735-161 119-15 149z"
     fill="#101010"
     id="path1334" />
  <path
     d="m 1024,854 h 341 l -6,-88 H 689 l -6,88 z m 0,647 h 389 l -6,-87 H 641 l -6,87 z"
     style="fill:#ffcc00;stroke:#101010;stroke-width:35;stroke-linecap:butt;stroke-linejoin:miter;stroke-miterlimit:4;stroke-dasharray:none;stroke-dashoffset:350;stroke-opacity:1;paint-order:normal"
     id="path8169"
     sodipodi:nodetypes="cccccccccccc" />
</svg>
