<?xml version="1.0" encoding="UTF-8" standalone="no"?>
<svg
   clip-rule="evenodd"
   fill-rule="evenodd"
   height="50mm"
   image-rendering="optimizeQuality"
   shape-rendering="geometricPrecision"
   text-rendering="geometricPrecision"
   viewBox="0 0 50 50"
   width="50mm"
   version="1.1"
   id="svg6339"
   sodipodi:docname="bN.svg"
   inkscape:version="1.2.1 (9c6d41e410, 2022-07-14)"
   xmlns:inkscape="http://www.inkscape.org/namespaces/inkscape"
   xmlns:sodipodi="http://sodipodi.sourceforge.net/DTD/sodipodi-0.dtd"
   xmlns:xlink="http://www.w3.org/1999/xlink"
   xmlns="http://www.w3.org/2000/svg"
   xmlns:svg="http://www.w3.org/2000/svg">
  <defs
     id="defs6343">
    <linearGradient
       inkscape:collect="always"
       xlink:href="#linearGradient2020"
       id="linearGradient2022"
       x1="394.99332"
       y1="306.83527"
       x2="1564.9102"
       y2="1762.6124"
       gradientUnits="userSpaceOnUse" />
    <linearGradient
       inkscape:collect="always"
       id="linearGradient2020">
      <stop
         style="stop-color:#a8a8a8;stop-opacity:1;"
         offset="0"
         id="stop2016" />
      <stop
         style="stop-color:#d1b000;stop-opacity:1;"
         offset="1"
         id="stop2018" />
    </linearGradient>
  </defs>
  <sodipodi:namedview
     id="namedview6341"
     pagecolor="#ffffff"
     bordercolor="#000000"
     borderopacity="0.25"
     inkscape:showpageshadow="2"
     inkscape:pageopacity="0.0"
     inkscape:pagecheckerboard="0"
     inkscape:deskcolor="#d1d1d1"
     inkscape:document-units="mm"
     showgrid="false"
     inkscape:zoom="3.0458035"
     inkscape:cx="8.3721749"
     inkscape:cy="97.347054"
     inkscape:window-width="1920"
     inkscape:window-height="1001"
     inkscape:window-x="-9"
     inkscape:window-y="-9"
     inkscape:window-maximized="1"
     inkscape:current-layer="svg6339" />
  <linearGradient
     id="a"
     gradientUnits="userSpaceOnUse"
     x1="21.253"
     x2="77.641"
     y1="37.592"
     y2="37.469">
    <stop
       offset="0"
       stop-color="#fff"
       id="stop6330" />
    <stop
       offset="1"
       stop-color="#fff"
       stop-opacity="0"
       id="stop6332" />
  </linearGradient>
  <path
     d="M26.178 9.395c2.6.17 5.004.838 7.222 2.015 2.21 1.169 4.098 2.676 5.656 4.513 1.092 1.287 2.117 2.845 3.082 4.665a28.684 28.684 0 0 1 2.32 5.774 36.511 36.511 0 0 1 1.253 7.46c.177 2.599.262 5.012.262 7.23v5.402H15.468c-.153 0-.22-.407-.212-1.21.009-.814.06-1.466.16-1.965.06-.398.221-.957.467-1.685.254-.728.66-1.609 1.244-2.65.263-.534.89-1.304 1.88-2.32.999-1.016 2.133-2.201 3.429-3.539.745-.762 1.32-1.719 1.744-2.879.423-1.151.601-2.201.533-3.15a8.37 8.37 0 0 1-2.006 1.22c-3.505 1.253-6.045 3.073-7.612 5.452-.118.153-.49.822-1.117 2.015-.33.627-.618 1.059-.847 1.287-.313.314-.77.491-1.363.525-.923.043-1.643-.398-2.16-1.346-.693.203-1.312.288-1.862.254-.923-.347-1.592-.72-2.006-1.117-.847-.847-1.389-1.685-1.651-2.532a9.43 9.43 0 0 1-.381-2.726c0-1.389.855-3.226 2.582-5.512 2.015-2.625 3.09-4.631 3.217-6.003 0-.593.06-1.261.178-2.007a4.198 4.198 0 0 1 .618-1.49c.22-.33.364-.558.432-.677.076-.127.212-.313.415-.559.144-.203.27-.355.372-.457.093-.11.22-.254.373-.44.178-.212.406-.457.694-.745a18.06 18.06 0 0 1-1.067-7.46c3.285 1.169 6.054 3.015 8.28 5.53.551-1.872 1.626-3.387 3.226-4.539 1.321.923 2.371 2.15 3.15 3.666z"
     fill="#1f1a17"
     id="path6335" />
  <path
     d="M15.688 17.786l.542-.28c.5-.194.652-.559.474-1.092-.195-.491-.576-.66-1.143-.491-1.947.711-3.294 2.015-4.039 3.92-.118.542.076.914.593 1.118.516.16.864-.017 1.041-.55.136-.28.229-.466.297-.543.186.144.423.246.72.297 1.007.16 1.6-.28 1.76-1.338a1.498 1.498 0 0 0-.245-1.041zM11.573 34.55c.06-.153.17-.373.322-.67.28-.693.415-1.108.415-1.244-.026-.457-.271-.694-.72-.694-.33 0-.711.474-1.16 1.414a.97.97 0 0 1-.296.347c-.449.466-.381.855.194 1.168.534.314.94.212 1.245-.321zm14.63-9.204c1.16-1.524 1.728-3.217 1.71-5.08-.067-.55-.38-.82-.94-.82-.761 0-1.057.279-.897.837.051.915-.033 1.668-.27 2.261-.382.94-.805 1.643-1.262 2.108-.254.5-.102.864.449 1.092.525.246.931.119 1.21-.398zM19.726 13.24a6.798 6.798 0 0 1 .051-1.93c-.99.194-1.922.66-2.802 1.388-.525.28-.652.67-.373 1.169.28.508.67.592 1.169.245.347-.186.669-.355.956-.508.288-.16.618-.28 1-.364zm23.25 31.454c-.017 0 0-.449.042-1.346.131-3.108.096-6.221.076-9.33a26.837 26.837 0 0 0-.889-6.613c-.84-3.31-2.124-6.485-4.072-9.297-2.634-3.845-6.814-6.033-11.286-6.976.126.766.033 1.54.076 2.311a25.82 25.82 0 0 1 4.538 2.032c4.241 2.555 6.414 7.276 7.197 11.93 1.272 6.154.453 11.557.813 17.289zM9.439 30.139c.475-.34.525-.729.144-1.194-.398-.381-.83-.415-1.312-.102-1.007.66-1.55 1.533-1.617 2.608.017.542.347.804.974.77.592-.05.88-.355.863-.922.136-.525.449-.915.948-1.16z"
     fill="url(#a)"
     id="path6337" />
  <g
     id="g1410"
     transform="matrix(0.00746058,0.00356414,-0.00356409,0.00746048,30.79635,-4.6016363)"
     inkscape:label="g1410"
     style="stroke:#000000;stroke-opacity:1">
    <path
       d="m 574.51015,1828.5122 48.3236,-356.6741 -216.30562,-554.57083 -135.76629,-20.71011 -9.8824,-156.18061 106.52959,-14.10265 78.2382,73.63602 -18.40899,98.94834 246.22023,197.89664 112.75505,-568.37755 -85.14157,-87.44279 59.55174,-124.3028 131.44153,59.87133 -23.01125,161.07866 223.20893,474.03155 243.9189,-490.13935 -66.7325,-105.85167 69.4165,-100.04256 128.48,81.63347 -64.4314,149.57306 103.5505,529.25855 228.8583,-193.84412 29.7901,-157.9471 116.4345,2.02032 57.5281,131.16414 -207.1011,103.55054 -174.8853,529.25842 48.3236,308.3506 z"
       fill="#f9f9f9"
       id="path1398"
       sodipodi:nodetypes="ccccccccccccccccccccccccccccc"
       transform="translate(-4.8295366e-5,1.5811956e-5)"
       style="fill:url(#linearGradient2022);fill-opacity:1;stroke:#000000;stroke-opacity:1"
       inkscape:label="path1398" />
    <path
       id="path1400"
       d="m 1514.8418,1443.1961 c 15.8269,-107.997 35.9935,-178.8303 64.9935,-250.497 29,-71.6667 64.1666,-142.5 105.4999,-212.50005 L 1465.3354,1135.1992 1342.3355,534.19912 1075.3357,1089.1992 808.29294,534.21955 685.3357,1135.1992 l -220,-155.00005 c 40.66667,70.00005 75.5,140.83335 104.5,212.50005 29,71.6667 49.5,142.5 65.97862,250.51 10.47862,138.0099 -3.85471,231.3432 -38.52138,318.0099 l 478.04276,-0.02 h 477.9996 c -35.3333,-86.6667 -49.6539,-180.0061 -42.9872,-280.0061 m -435.0124,354.0062 -583.04276,0.02 c 76,-154 95.16667,-306.1667 57.5,-456.5 -37.66667,-150.3333 -105.16667,-300.1667 -202.5,-449.50003 -8,1.33333 -14.33333,2 -19,2 -36,0 -66.83333,-12.83334 -92.5,-38.50001 -25.66667,-25.66668 -38.5,-56.50003 -38.5,-92.50004 0,-36.00001 12.83333,-66.83336 38.5,-92.50003 25.66667,-25.66661 56.5,-38.49991 92.5,-38.49991 36,0 66.83333,12.8333 92.5,38.49991 25.66667,25.66667 38.5,56.50002 38.5,92.50003 0,13.33334 -2,26.00001 -6,38.00002 -2.66667,9.33333 -7.66667,20.33334 -15,33.00001 l 196,139.00005 99.99998,-486.00005 c -42.66665,-20.66663 -66.66665,-54.99999 -71.99998,-103.00007 -3.33333,-29.33333 6.33333,-59.6666 29,-90.99981 22.66665,-31.33337 51.99998,-49.00006 87.99999,-53.00006 36,-3.33333 68,6.33333 96.00001,28.99998 28.00001,22.66665 44.00001,51.99999 48.00001,88 4.66667,45.33331 -10.66667,83.33332 -46.00001,114.00001 L 1075.2929,920.21957 1273.2928,508.2196 c -36,-30.66669 -51.3333,-68.6667 -46,-114.00001 4,-36.00001 20,-65.33335 48,-88 27.9999,-22.66665 59.9999,-32.33331 95.9999,-28.99998 35.9999,4 65.1666,21.66669 87.4999,53.00006 22.3333,31.33321 32.1667,61.66648 29.5,90.99981 -6,48.00008 -30,82.33344 -72,103.00007 l 100.0428,485.97965 195.957,-138.97965 c -8,-12.66667 -13,-23.66668 -15,-33.00001 -4,-12.00001 -6,-24.66668 -6,-38.00002 0,-36.00001 12.8333,-66.83336 38.5,-92.50003 25.6667,-25.66661 56.5,-38.49991 92.4999,-38.49991 35.9999,0 66.8333,12.8333 92.5002,38.49991 25.6667,25.66667 38.5,56.50002 38.5,92.50003 0,36.00001 -12.8333,66.83336 -38.5,92.50004 -25.6669,25.66667 -56.5003,38.50001 -92.5002,38.50001 -4.6667,0 -11,-0.66667 -18.9999,-2 -98,149.33333 -165.6238,299.14633 -202.9571,449.47963 -37.3333,150.3333 -18,302.5 57.9999,456.5 z M 327.29294,738.2195 c -41.33333,0 -62,20.66667 -62,62.00002 0,41.33335 20.66667,62.00003 62,62.00003 42,0 63,-20.66668 63,-62.00003 0,-41.33335 -21,-62.00002 -63,-62.00002 z M 793.29293,344.21957 c -41.33334,0 -62.00001,20.66664 -62.00001,61.99992 0,41.33338 20.66667,62.00007 62.00001,62.00007 41.33334,0 62.00001,-20.66669 62.00001,-62.00007 0,-41.33328 -20.66667,-61.99992 -62.00001,-61.99992 z M 1823.2923,738.2195 c -41.9999,0 -62.9999,20.66667 -62.9999,62.00002 0,41.33335 21,62.00003 62.9999,62.00003 41.3333,0 61.9999,-20.66668 61.9999,-62.00003 0,-41.33335 -20.6666,-62.00002 -61.9999,-62.00002 z M 1357.2927,344.21957 c -41.3333,0 -62,20.66664 -62,61.99992 0,41.33338 20.6667,62.00007 62,62.00007 41.3333,0 61.9999,-20.66669 61.9999,-62.00007 0,-41.33328 -20.6666,-61.99992 -61.9999,-61.99992 z"
       sodipodi:nodetypes="cscccccccscccccccscssssssscccccscscccccscscccccssssssscsccssssssssssssssssssss"
       style="fill:#1f1a17;fill-opacity:1;stroke:none;stroke-opacity:1" />
  </g>
</svg>
