<?xml version="1.0" encoding="UTF-8" standalone="no"?>
<svg
   clip-rule="evenodd"
   fill-rule="evenodd"
   height="50mm"
   image-rendering="optimizeQuality"
   shape-rendering="geometricPrecision"
   text-rendering="geometricPrecision"
   viewBox="0 0 50 50"
   width="50mm"
   version="1.1"
   id="svg1251"
   sodipodi:docname="wN.svg"
   xml:space="preserve"
   inkscape:version="1.2.1 (9c6d41e410, 2022-07-14)"
   xmlns:inkscape="http://www.inkscape.org/namespaces/inkscape"
   xmlns:sodipodi="http://sodipodi.sourceforge.net/DTD/sodipodi-0.dtd"
   xmlns:xlink="http://www.w3.org/1999/xlink"
   xmlns="http://www.w3.org/2000/svg"
   xmlns:svg="http://www.w3.org/2000/svg"><defs
     id="defs1255"><linearGradient
       inkscape:collect="always"
       id="linearGradient2020"><stop
         style="stop-color:#a8a8a8;stop-opacity:1;"
         offset="0"
         id="stop2016" /><stop
         style="stop-color:#d1b000;stop-opacity:1;"
         offset="1"
         id="stop2018" /></linearGradient><linearGradient
       inkscape:collect="always"
       xlink:href="#linearGradient2020"
       id="linearGradient2022"
       x1="394.99332"
       y1="306.83527"
       x2="1564.9102"
       y2="1762.6124"
       gradientUnits="userSpaceOnUse" /></defs><sodipodi:namedview
     id="namedview1253"
     pagecolor="#ffffff"
     bordercolor="#000000"
     borderopacity="0.25"
     inkscape:showpageshadow="2"
     inkscape:pageopacity="0.0"
     inkscape:pagecheckerboard="0"
     inkscape:deskcolor="#d1d1d1"
     inkscape:document-units="mm"
     showgrid="false"
     inkscape:lockguides="false"
     inkscape:zoom="2.8284271"
     inkscape:cx="29.521708"
     inkscape:cy="92.454211"
     inkscape:window-width="1920"
     inkscape:window-height="1001"
     inkscape:window-x="-9"
     inkscape:window-y="-9"
     inkscape:window-maximized="1"
     inkscape:current-layer="svg1251" /><linearGradient
     id="a"
     gradientUnits="userSpaceOnUse"
     x1="21.405"
     x2="77.641"
     y1="37.346"
     y2="37.346"><stop
       offset="0"
       stop-color="#fff"
       id="stop1242" /><stop
       offset="1"
       stop-color="#fff"
       stop-opacity="0"
       id="stop1244" /></linearGradient><path
     d="M26.178 9.395c2.6.17 5.004.838 7.222 2.015 2.21 1.169 4.098 2.676 5.656 4.513 1.092 1.287 2.117 2.845 3.082 4.665a28.684 28.684 0 0 1 2.32 5.774 36.511 36.511 0 0 1 1.253 7.46c.177 2.599.262 5.012.262 7.23v5.402H15.468c-.153 0-.22-.407-.212-1.21.009-.814.06-1.466.16-1.965.06-.398.221-.957.467-1.685.254-.728.66-1.609 1.244-2.65.263-.534.89-1.304 1.88-2.32.999-1.016 2.133-2.201 3.429-3.539.745-.762 1.32-1.719 1.744-2.879.423-1.151.601-2.201.533-3.15a8.37 8.37 0 0 1-2.006 1.22c-3.505 1.253-6.045 3.073-7.612 5.452-.118.153-.49.822-1.117 2.015-.33.627-.618 1.059-.847 1.287-.313.314-.77.491-1.363.525-.923.043-1.643-.398-2.16-1.346-.693.203-1.312.288-1.862.254-.923-.347-1.592-.72-2.006-1.117-.847-.847-1.389-1.685-1.651-2.532a9.43 9.43 0 0 1-.381-2.726c0-1.389.855-3.226 2.582-5.512 2.015-2.625 3.09-4.631 3.217-6.003 0-.593.06-1.261.178-2.007a4.198 4.198 0 0 1 .618-1.49c.22-.33.364-.558.432-.677.076-.127.212-.313.415-.559.144-.203.27-.355.372-.457.093-.11.22-.254.373-.44.178-.212.406-.457.694-.745a18.06 18.06 0 0 1-1.067-7.46c3.285 1.169 6.054 3.015 8.28 5.53.551-1.872 1.626-3.387 3.226-4.539 1.321.923 2.371 2.15 3.15 3.666z"
     fill="#1f1a17"
     id="path1247" /><path
     d="M42.976 44.693c-.017 0 0-.449.042-1.346.051-.906.076-1.88.076-2.921.017-2.066.017-4.2 0-6.41a26.837 26.837 0 0 0-.889-6.612c-.567-2.117-1.185-3.92-1.862-5.419-.678-1.498-1.414-2.785-2.21-3.878-1.185-1.786-2.811-3.302-4.86-4.538-2.049-1.244-4.19-2.057-6.426-2.438.152.813.22 1.609.203 2.387-.034.593-.313.89-.847.89-.61 0-.88-.297-.82-.89.05-2.184-.729-4.055-2.33-5.604-1.252 1.32-1.938 2.853-2.031 4.605-.034.585-.33.839-.898.77-.525-.016-.787-.32-.787-.914 0 0 .017-.067.042-.203-.677.22-1.388.525-2.133.923-.474.33-.864.246-1.16-.245-.297-.5-.17-.89.398-1.169.71-.364 1.244-.635 1.608-.821a17.634 17.634 0 0 0-4.86-3.522 17.31 17.31 0 0 0 1.889 6.528c.279.423.211.804-.204 1.134-.465.364-.855.313-1.168-.17a8.87 8.87 0 0 1-.491-.897c-.347.347-.584.61-.694.77-.119.153-.322.483-.61.991-.288.517-.5.94-.635 1.27-.144.415-.212.745-.186 1.008.025.254.05.533.067.855a7.61 7.61 0 0 1-1.007 2.752 133.71 133.71 0 0 1-1.998 3.15 127.607 127.607 0 0 1-1.787 2.675c-.415.601-.728 1.354-.94 2.286-.152.559-.152 1.244 0 2.04.144.805.475 1.431.966 1.88.762.77 1.498 1.126 2.21 1.067.228 0 .541-.093.93-.28.39-.178.687-.525.907-1.041.423-.94.779-1.414 1.067-1.414.406 0 .635.237.668.694 0 .102-.135.517-.397 1.245-.153.33-.348.677-.593 1.041-.322.432-.457.61-.423.542.262.948.702 1.11 1.312.5.178-.178.39-.525.618-1.016.237-.5.601-1.169 1.092-2.007.584-.982 1.202-1.77 1.863-2.388.66-.61 1.244-1.109 1.76-1.481.297-.22.661-.466 1.093-.745.432-.288 1.008-.576 1.736-.872.576-.229 1.219-.517 1.922-.856s1.329-.77 1.87-1.303c.763-.745 1.347-1.66 1.762-2.752.22-.61.296-1.363.245-2.26-.144-.56.136-.839.847-.839.533 0 .83.271.898.821 0 1.863-.534 3.565-1.592 5.106.347 1.058.44 2.218.27 3.471-.143 1.008-.499 2.091-1.05 3.243-.558 1.143-1.676 2.421-3.36 3.827-3.43 2.845-5.046 5.774-4.86 8.78h12.175zM9.338 29.613c-.483.297-.77.695-.872 1.194.017.542-.237.839-.762.89-.584.067-.88-.178-.898-.746.068-1.092.55-1.955 1.465-2.599.432-.347.83-.322 1.194.093.364.449.322.838-.127 1.169zm7.366-11.827c.212.33.296.677.245 1.041-.16 1.058-.753 1.499-1.76 1.338a1.596 1.596 0 0 1-.72-.296c-.06.076-.161.262-.297.541-.178.534-.525.712-1.041.55-.508-.202-.711-.575-.593-1.117.745-1.905 2.091-3.209 4.039-3.92.567-.17.94 0 1.117.491.204.534.051.898-.448 1.092a2.745 2.745 0 0 1-.271.136c-.085.042-.17.093-.271.144z"
     fill="url(#a)"
     id="path1249" /><g
     id="g1410"
     transform="matrix(0.00746058,0.00356414,-0.00356409,0.00746048,30.79635,-4.6016363)"
     inkscape:label="g1410"
     style="stroke:#000000;stroke-opacity:1"><path
       d="m 574.51015,1828.5122 48.3236,-356.6741 -216.30562,-554.57083 -135.76629,-20.71011 -9.8824,-156.18061 106.52959,-14.10265 78.2382,73.63602 -18.40899,98.94834 246.22023,197.89664 112.75505,-568.37755 -85.14157,-87.44279 59.55174,-124.3028 131.44153,59.87133 -23.01125,161.07866 223.20893,474.03155 243.9189,-490.13935 -66.7325,-105.85167 69.4165,-100.04256 128.48,81.63347 -64.4314,149.57306 103.5505,529.25855 228.8583,-193.84412 29.7901,-157.9471 116.4345,2.02032 57.5281,131.16414 -207.1011,103.55054 -174.8853,529.25842 48.3236,308.3506 z"
       fill="#f9f9f9"
       id="path1398"
       sodipodi:nodetypes="ccccccccccccccccccccccccccccc"
       transform="translate(-4.8295366e-5,1.5811956e-5)"
       style="fill:url(#linearGradient2022);fill-opacity:1;stroke:#000000;stroke-opacity:1"
       inkscape:label="path1398" /><path
       id="path1400"
       d="m 1514.8418,1443.1961 c 15.8269,-107.997 35.9935,-178.8303 64.9935,-250.497 29,-71.6667 64.1666,-142.5 105.4999,-212.50005 L 1465.3354,1135.1992 1342.3355,534.19912 1075.3357,1089.1992 808.29294,534.21955 685.3357,1135.1992 l -220,-155.00005 c 40.66667,70.00005 75.5,140.83335 104.5,212.50005 29,71.6667 49.5,142.5 65.97862,250.51 10.47862,138.0099 -3.85471,231.3432 -38.52138,318.0099 l 478.04276,-0.02 h 477.9996 c -35.3333,-86.6667 -49.6539,-180.0061 -42.9872,-280.0061 m -435.0124,354.0062 -583.04276,0.02 c 76,-154 95.16667,-306.1667 57.5,-456.5 -37.66667,-150.3333 -105.16667,-300.1667 -202.5,-449.50003 -8,1.33333 -14.33333,2 -19,2 -36,0 -66.83333,-12.83334 -92.5,-38.50001 -25.66667,-25.66668 -38.5,-56.50003 -38.5,-92.50004 0,-36.00001 12.83333,-66.83336 38.5,-92.50003 25.66667,-25.66661 56.5,-38.49991 92.5,-38.49991 36,0 66.83333,12.8333 92.5,38.49991 25.66667,25.66667 38.5,56.50002 38.5,92.50003 0,13.33334 -2,26.00001 -6,38.00002 -2.66667,9.33333 -7.66667,20.33334 -15,33.00001 l 196,139.00005 99.99998,-486.00005 c -42.66665,-20.66663 -66.66665,-54.99999 -71.99998,-103.00007 -3.33333,-29.33333 6.33333,-59.6666 29,-90.99981 22.66665,-31.33337 51.99998,-49.00006 87.99999,-53.00006 36,-3.33333 68,6.33333 96.00001,28.99998 28.00001,22.66665 44.00001,51.99999 48.00001,88 4.66667,45.33331 -10.66667,83.33332 -46.00001,114.00001 L 1075.2929,920.21957 1273.2928,508.2196 c -36,-30.66669 -51.3333,-68.6667 -46,-114.00001 4,-36.00001 20,-65.33335 48,-88 27.9999,-22.66665 59.9999,-32.33331 95.9999,-28.99998 35.9999,4 65.1666,21.66669 87.4999,53.00006 22.3333,31.33321 32.1667,61.66648 29.5,90.99981 -6,48.00008 -30,82.33344 -72,103.00007 l 100.0428,485.97965 195.957,-138.97965 c -8,-12.66667 -13,-23.66668 -15,-33.00001 -4,-12.00001 -6,-24.66668 -6,-38.00002 0,-36.00001 12.8333,-66.83336 38.5,-92.50003 25.6667,-25.66661 56.5,-38.49991 92.4999,-38.49991 35.9999,0 66.8333,12.8333 92.5002,38.49991 25.6667,25.66667 38.5,56.50002 38.5,92.50003 0,36.00001 -12.8333,66.83336 -38.5,92.50004 -25.6669,25.66667 -56.5003,38.50001 -92.5002,38.50001 -4.6667,0 -11,-0.66667 -18.9999,-2 -98,149.33333 -165.6238,299.14633 -202.9571,449.47963 -37.3333,150.3333 -18,302.5 57.9999,456.5 z M 327.29294,738.2195 c -41.33333,0 -62,20.66667 -62,62.00002 0,41.33335 20.66667,62.00003 62,62.00003 42,0 63,-20.66668 63,-62.00003 0,-41.33335 -21,-62.00002 -63,-62.00002 z M 793.29293,344.21957 c -41.33334,0 -62.00001,20.66664 -62.00001,61.99992 0,41.33338 20.66667,62.00007 62.00001,62.00007 41.33334,0 62.00001,-20.66669 62.00001,-62.00007 0,-41.33328 -20.66667,-61.99992 -62.00001,-61.99992 z M 1823.2923,738.2195 c -41.9999,0 -62.9999,20.66667 -62.9999,62.00002 0,41.33335 21,62.00003 62.9999,62.00003 41.3333,0 61.9999,-20.66668 61.9999,-62.00003 0,-41.33335 -20.6666,-62.00002 -61.9999,-62.00002 z M 1357.2927,344.21957 c -41.3333,0 -62,20.66664 -62,61.99992 0,41.33338 20.6667,62.00007 62,62.00007 41.3333,0 61.9999,-20.66669 61.9999,-62.00007 0,-41.33328 -20.6666,-61.99992 -61.9999,-61.99992 z"
       sodipodi:nodetypes="cscccccccscccccccscssssssscccccscscccccscscccccssssssscsccssssssssssssssssssss"
       style="fill:#1f1a17;fill-opacity:1;stroke:none;stroke-opacity:1" /></g></svg>
